<svg width="32" height="32" viewBox="0 0 32 32" fill="none" xmlns="http://www.w3.org/2000/svg">
<path d="M23.169 0H8.83065C3.96143 0 0 3.9616 0 8.83079V23.169C0 28.0384 3.96143 31.9998 8.83065 31.9998H23.169C28.0386 31.9998 32 28.0382 32 23.169V8.83079C32.0002 3.9616 28.0386 0 23.169 0ZM29.161 23.169C29.161 26.4729 26.473 29.1606 23.1692 29.1606H8.83065C5.52697 29.1608 2.8392 26.4729 2.8392 23.169V8.83079C2.8392 5.52712 5.52697 2.83918 8.83065 2.83918H23.169C26.4728 2.83918 29.1608 5.52712 29.1608 8.83079V23.169H29.161Z" fill="white"/>
<path d="M16 7.75488C11.4533 7.75488 7.75441 11.4538 7.75441 16.0004C7.75441 20.5469 11.4533 24.2456 16 24.2456C20.5467 24.2456 24.2456 20.5469 24.2456 16.0004C24.2456 11.4538 20.5467 7.75488 16 7.75488ZM16 21.4062C13.019 21.4062 10.5936 18.9812 10.5936 16.0002C10.5936 13.0191 13.0188 10.5939 16 10.5939C18.9812 10.5939 21.4064 13.0191 21.4064 16.0002C21.4064 18.9812 18.981 21.4062 16 21.4062Z" fill="white"/>
<path d="M24.5914 5.34717C24.0444 5.34717 23.507 5.56862 23.1207 5.95665C22.7325 6.34277 22.5093 6.88032 22.5093 7.42923C22.5093 7.97644 22.7327 8.5138 23.1207 8.90182C23.5068 9.28795 24.0444 9.5113 24.5914 9.5113C25.1403 9.5113 25.676 9.28795 26.064 8.90182C26.452 8.5138 26.6735 7.97625 26.6735 7.42923C26.6735 6.88032 26.452 6.34277 26.064 5.95665C25.6779 5.56862 25.1403 5.34717 24.5914 5.34717Z" fill="white"/>
</svg>
